<?xml version="1.0"?>
<svg xmlns="http://www.w3.org/2000/svg" xmlns:xlink="http://www.w3.org/1999/xlink" version="1.1" id="Capa_1" x="0px" y="0px" viewBox="0 0 496 496" style="enable-background:new 0 0 496 496;" xml:space="preserve" width="512px" height="512px" class=""><g><g>
	<g>
		<g>
			<path d="M367.8,304c-3.16-73.36-49.456-135.696-114.12-162.256l50.544-28.08c4.264-2.368,7.936-5.76,10.624-9.792     c4.64-6.96,6.224-15.296,4.464-23.472c-1.76-8.176-6.64-15.128-13.728-19.56l-42.352-26.472c0.456-2.048,0.768-4.12,0.768-6.24     C264,12.616,251.384,0,235.872,0H132.128C116.616,0,104,12.616,104,28.144c0,2.328,0.384,4.592,0.952,6.824L63.56,60.84     c-7.096,4.432-11.976,11.376-13.728,19.552c-1.76,8.176-0.176,16.512,4.464,23.472c2.688,4.04,6.368,7.432,10.624,9.8     l50.072,27.816C47.64,168.84,0,234.944,0,312c0,93.392,68.312,170.376,160,182.248V496h336V304H367.8z M257.536,49.696     l39.56,24.72c3.4,2.112,5.736,5.432,6.568,9.352c0.84,3.912,0.08,7.896-2.144,11.232c-1.288,1.928-3.04,3.544-5.08,4.68     l-63.152,35.088c-2.936-0.816-5.896-1.56-8.888-2.232L257.536,49.696z M132.128,16H235.88c6.68,0,12.12,5.44,12.12,12.128     c0,1.552-0.296,3.072-0.864,4.504l-38.816,97.024C200.36,128.6,192.248,128,184,128s-16.36,0.6-24.328,1.656l-38.808-97.008     c-0.568-1.44-0.864-2.952-0.864-4.52C120,21.44,125.44,16,132.128,16z M72.688,99.672c-2.04-1.136-3.8-2.752-5.088-4.688     c-2.216-3.328-2.976-7.312-2.136-11.224c0.84-3.912,3.176-7.232,6.568-9.352l38.64-24.152l32.912,82.264     c-2.736,0.616-5.448,1.288-8.136,2.024L72.688,99.672z M160,478.112C77.344,466.392,16,396.568,16,312c0-92.64,75.36-168,168-168     c89.936,0,163.376,71.088,167.592,160H160V478.112z M480,480H176V320h304V480z" data-original="#000000" class="active-path" data-old_color="#000000" fill="#008751"/>
			<path d="M328,459.312l41.368-41.368c9.44-9.44,14.632-21.976,14.632-35.312C384,365.736,370.264,352,353.368,352     c-8.176,0-15.872,3.184-21.656,8.976L328,364.688l-3.712-3.712c-5.792-5.792-13.48-8.976-21.656-8.976     C285.736,352,272,365.736,272,382.632c0,13.336,5.192,25.88,14.632,35.312L328,459.312z M302.632,368     c3.904,0,7.576,1.52,10.344,4.288L328,387.312l15.024-15.024c2.768-2.768,6.44-4.288,10.344-4.288     c8.072,0,14.632,6.56,14.632,14.632c0,9.064-3.528,17.592-9.944,24L328,436.688l-30.056-30.056     c-6.408-6.408-9.944-14.936-9.944-24C288,374.56,294.56,368,302.632,368z" data-original="#000000" class="active-path" data-old_color="#000000" fill="#008751"/>
			<path d="M56.952,379.832c3.136,5.864,6.704,11.544,10.6,16.888l12.928-9.432c-3.464-4.744-6.64-9.8-9.432-15.016L56.952,379.832z     " data-original="#000000" class="active-path" data-old_color="#000000" fill="#008751"/>
			<path d="M40,312c0,17.488,3.104,34.584,9.224,50.824l14.968-5.648C58.76,342.752,56,327.552,56,312c0-70.576,57.424-128,128-128     v-16C104.6,168,40,232.6,40,312z" data-original="#000000" class="active-path" data-old_color="#000000" fill="#008751"/>
			<polygon points="208,352 240,352 240,336 192,336 192,384 208,384    " data-original="#000000" class="active-path" data-old_color="#000000" fill="#008751"/>
			<polygon points="240,448 208,448 208,416 192,416 192,464 240,464    " data-original="#000000" class="active-path" data-old_color="#000000" fill="#008751"/>
			<polygon points="448,384 464,384 464,336 416,336 416,352 448,352    " data-original="#000000" class="active-path" data-old_color="#000000" fill="#008751"/>
			<polygon points="464,416 448,416 448,448 416,448 416,464 464,464    " data-original="#000000" class="active-path" data-old_color="#000000" fill="#008751"/>
		</g>
	</g>
</g></g> </svg>
